<svg width="89" height="92" viewBox="0 0 89 92" fill="none" xmlns="http://www.w3.org/2000/svg">
<path d="M54.0835 4.92468C53.7178 2.1313 51.8053 0 49.496 0C47.1921 0 45.2826 2.1313 44.9164 4.92468C33.5771 6.89772 25 16.0269 25 27H74C74 16.0269 65.4233 6.89772 54.0835 4.92468Z" fill="#F56A10"/>
<path d="M73.0438 29H24.9535C22.7724 29 21 30.7896 21 33H77C77 30.7896 75.2274 29 73.0438 29Z" fill="#F56A10"/>
<path d="M73.0438 35H24.9535C22.7724 35 21 36.7925 21 39H77C77 36.7925 75.2274 35 73.0438 35Z" fill="#F56A10"/>
<path d="M87.8338 49.3892C86.5303 48.0048 84.4777 47.6542 82.7918 48.5307L67.3802 56.5535C66.7858 56.8604 66.1713 57.1 65.5337 57.2806C55.6921 60.0392 46.4218 57.2519 46.4218 57.2519C53.5243 55.8962 57.5792 54.4216 59.8796 53.2381C61.734 52.2764 62.7721 50.2321 62.4606 48.1621C62.0885 45.6768 59.9129 43.8799 57.424 44.0063C47.8933 44.4935 27.3302 47.6645 21.7042 55.4705C18.7305 59.6031 15.5962 63.215 13 65.9967L24.9278 78L29.0262 74.6901C30.7858 73.2616 32.9538 72.4339 35.2184 72.3231L60.3566 71.0935C70.9352 69.6601 82.2585 60.4074 87.6066 55.5042C89.3689 53.8905 89.4761 51.132 87.8338 49.3892Z" fill="#587C8C"/>
<mask id="mask0_1063_119" style="mask-type:luminance" maskUnits="userSpaceOnUse" x="0" y="66" width="25" height="26">
<path d="M0 66.4253H24.7448V91.0612H0V66.4253Z" fill="white"/>
</mask>
<g mask="url(#mask0_1063_119)">
<path d="M17.3827 77.8833C18.9616 77.8833 20.2476 79.1594 20.2476 80.7412C20.2476 82.3152 18.9616 83.5986 17.3827 83.5986C15.7988 83.5986 14.5204 82.3152 14.5204 80.7412C14.5204 79.1594 15.7988 77.8833 17.3827 77.8833ZM0.0509644 77.1539L14.1919 91.0182L24.2737 80.7461L10.3594 66.8643L0.0509644 77.1539Z" fill="#587C8C"/>
</g>
</svg>
